# xmcd
#
# Track frame offsets:
#	150
#	14457
#	30873
#	45658
#	63878
#	74204
#	94425
#	104701
#	119088
#	132628
#	147581
#	169211
#
# Disc length: 2413 seconds
# Revision: 0
# Processed by: cddbd v1.5.2PL0 Copyright (c) Steve Scherf et al.
# Submitted via: dBpowerAMP V12.0
#
DISCID=bf096b0c
DTITLE=Various Artist - Rural Route
DYEAR=1900
DGENRE=Country
TTITLE0=Ken Mellons - Rural Route
TTITLE1=Ken Mellons - Blue Wind
TTITLE2=Ken Mellons - Memory Remover
TTITLE3=Ken Mellons - I'm Just a House
TTITLE4=Ken Mellons - Tennessee Ridge Runner
TTITLE5=Ken Mellons with Vince Gill - Still They Call Me Love
TTITLE6=Ken Mellons - Take It Like a Man
TTITLE7=Ken Mellons - A Cold One Can't Cure
TTITLE8=Ken Mellons - Tennessee
TTITLE9=Ken Mellons - Don't Neglect the Rose
TTITLE10=Ken Mellons with Sonya Issacs - Still Brand New
TTITLE11=Ken Mellons - King of All Kings
EXTD=
EXTT0=
EXTT1=
EXTT2=
EXTT3=
EXTT4=
EXTT5=
EXTT6=
EXTT7=
EXTT8=
EXTT9=
EXTT10=
EXTT11=
PLAYORDER=
